<svg width="201" height="136" viewBox="0 0 201 136" fill="none" xmlns="http://www.w3.org/2000/svg">
<rect x="-2.33337" y="0.666687" width="135" height="135" fill="white"/>
<path d="M65.3334 66.6468L-2.33327 135.667L-2.33327 0.33342L133 0.33342L65.3334 66.6468Z" fill="#58D8F4"/>
<path d="M-2.33337 0.333313H65.3333V68L31.5 34.1666L-2.33337 0.333313Z" fill="#3A4276"/>
<path d="M-2.33337 67.6667H65.3333V135.333L31.5 101.5L-2.33337 67.6667Z" fill="#3A4276"/>
<path d="M132.667 135.667C114.72 135.667 97.509 128.538 84.819 115.848C72.1291 103.158 64.9999 85.9464 64.9999 68C64.9999 50.0537 72.1291 32.8424 84.819 20.1525C97.509 7.46252 114.72 0.333377 132.667 0.333374L132.667 68V135.667Z" fill="#58D8F4"/>
</svg>
