<svg width="133" height="136" viewBox="0 0 133 136" fill="none" xmlns="http://www.w3.org/2000/svg">
<rect width="133" height="136" fill="white"/>
<path d="M133 134C115.23 134 97.5221 126.941 84.9572 114.376C72.3922 101.811 65.3333 84.7695 65.3333 67C65.3333 49.2305 72.3922 32.1888 84.9571 19.6239C97.5221 7.05891 115.23 2.68312e-06 133 0L133 67L133 134Z" fill="#FF356B"/>
<path d="M-1.5 0C16.1369 0 33.0514 7.11159 45.5226 19.7703C57.9938 32.429 65 49.5979 65 67.5C65 85.4021 57.9938 102.571 45.5226 115.23C33.0514 127.888 16.1369 135 -1.49999 135V108.032C9.09045 108.032 19.2471 103.762 26.7357 96.1603C34.2243 88.5591 38.4313 78.2497 38.4313 67.5C38.4313 56.7503 34.2243 46.4409 26.7357 38.8397C19.2471 31.2385 9.09045 26.9682 -1.5 26.9682V0Z" fill="#58D8F4"/>
</svg>
